<?xml version="1.0" standalone="no"?>
<!DOCTYPE svg PUBLIC "-//W3C//DTD SVG 1.1//EN" "http://www.w3.org/Graphics/SVG/1.1/DTD/svg11.dtd" >
<svg xmlns="http://www.w3.org/2000/svg">
<metadata>Generated by IcoMoon</metadata>
<defs>
<font id="icomoon" horiz-adv-x="1024">
<font-face units-per-em="1024" ascent="960" descent="-64" />
<missing-glyph horiz-adv-x="1024" />
<glyph unicode="&#x20;" horiz-adv-x="512" d="" />
<glyph unicode="&#xe900;" glyph-name="blacklist" d="M682.7 432.1c-82.9 0-150-67.2-150-150s67.2-150 150-150 150 67.2 150 150-67.1 150-150 150zM570.8 282c0 61.8 50.1 111.9 111.9 111.9v0c24.6-0.1 48.5-8.3 67.9-23.5l-162.3-148c-11.3 17.8-17.4 38.5-17.5 59.6v0zM682.7 170.2c-24.6 0.1-48.5 8.4-67.9 23.5l162.3 148c11-17.3 17.5-37.7 17.5-59.6 0-61.8-50.1-111.9-111.9-111.9v0zM558.8 406.6c1.8-0.5 3.6-1.1 5.6-1.1 9.7-5.2 21.7-1.6 26.9 8.1s1.6 21.7-8.1 26.9c-2.8 1.5-5.9 2.3-9 2.4l0.3 0.5c-0.7 0.3-1.4 0.4-2.1 0.7l-0.4 0.1c-4.8 1.8-9.7 3.4-14.7 5 55.9 31.8 93.9 91.2 93.9 160.1-1.5 102.1-85.6 183.7-187.7 182.1-100-1.5-180.6-82.2-182.1-182.1 0-71.1 40.5-132 99.3-163-109-38.3-183.5-139.6-187.5-255.2h0.3c0-0.5-0.3-1-0.3-1.5 0-11.1 9-20.1 20.1-20.1 13.9 0 24.3 9 24.3 20.1 0 0.5-0.3 1-0.3 1.5h0.4c5.1 128.2 106.3 226.6 235.8 226.6 30 0 58.6-1.3 85.1-11.4l0.2 0.3zM466.4 465.5c-79.4 0-143.8 64.4-143.8 143.8s64.4 143.8 143.8 143.8 143.8-64.4 143.8-143.8-64.4-143.8-143.8-143.8z" />
<glyph unicode="&#xe901;" glyph-name="play" d="M513 828.4c-210.1 0-380.4-170.3-380.4-380.4s170.3-380.4 380.4-380.4 380.4 170.3 380.4 380.4-170.3 380.4-380.4 380.4zM514.1 112.4c-184.8 0-334.5 149.8-334.5 334.5s149.7 334.5 334.5 334.5 334.5-149.7 334.5-334.5-149.7-334.5-334.5-334.5zM668.6 445.9l-234.9-135.7v271.3z" />
<glyph unicode="&#xe902;" glyph-name="question" d="M511.4 55.7c-219 0-396.5 177.5-396.5 396.5s177.5 396.5 396.5 396.5c219 0 396.5-177.5 396.5-396.5s-177.5-396.5-396.5-396.5v0zM511.4 821c-202.4 0-368.8-166.4-368.8-368.8s166.4-368.8 368.8-368.8c202.4 0 368.8 166.4 368.8 368.8-0.1 202.4-166.4 368.8-368.8 368.8v0zM511.4 274.8c-8.3 0-13.9 5.5-13.9 13.9-8.3 105.4 5.5 116.5 8.3 122 2.8 2.8 8.3 5.5 11.1 5.5 61 0 110.9 49.9 110.9 110.9s-49.9 110.9-110.9 110.9c-61 0-110.9-49.9-110.9-110.9v-16.6c0-8.3-2.8-13.9-11.1-16.6-8.3 0-13.9 2.8-16.6 11.1 0 8.3-2.8 13.9-2.8 22.2 0 74.9 61 138.6 138.6 138.6s138.6-61 138.6-138.6c0-74.9-58.2-133.1-130.3-138.6-2.8-16.6-2.8-61 0-97 2.8-8.5-2.7-16.8-11-16.8v0zM497.5 205.4c0-9.2 7.4-16.6 16.6-16.6s16.6 7.5 16.6 16.6c0 9.2-7.4 16.6-16.6 16.6-9.1 0.1-16.6-7.4-16.6-16.6v0z" />
<glyph unicode="&#xe903;" glyph-name="card" d="M508.5 74.4c-211.2 0-382.3 171.2-382.3 382.3 0 211.2 171.1 382.3 382.3 382.3s382.3-171.1 382.3-382.3c0-211.1-171.1-382.3-382.3-382.3v0zM508.5 791.2c-184.7 0-334.5-149.8-334.5-334.5s149.8-334.5 334.5-334.5c184.7 0 334.5 149.8 334.5 334.5s-149.8 334.5-334.5 334.5v0zM711.9 408.9h-203.7c-6.9 0-13.5 3.1-17.9 8.5-3.6 4.2-5.7 9.5-5.7 15.1v239.6c0 13 10.7 23.6 23.9 23.6s23.9-10.5 23.9-23.6v-215.4h179.5c13 0 23.6-10.7 23.6-23.9 0-6.3-2.4-12.3-6.8-16.8-4.5-4.5-10.5-7-16.8-7.1v0z" />
<glyph unicode="&#xe904;" glyph-name="address" d="M510.8 47.2c-50.1-0.3-301.3 376.2-301.3 502.2 0 166.4 134.9 301.3 301.3 301.3s301.3-134.9 301.3-301.3c0-124.3-252-502.5-301.3-502.2v0zM510.8 800.5c-138.7 0-251.1-112.4-251.1-251.1 0-105 209.3-427.1 251.1-426.9 41.1-0.2 251.1 323.3 251.1 426.9 0 138.6-112.5 251.1-251.1 251.1v0zM510.8 423.8c-69.3 0-125.5 56.2-125.5 125.5s56.2 125.5 125.5 125.5c69.3 0 125.5-56.2 125.5-125.5s-56.2-125.5-125.5-125.5v0zM510.8 624.7c-41.6 0-75.3-33.7-75.3-75.3s33.7-75.3 75.3-75.3 75.3 33.7 75.3 75.3c0 41.6-33.7 75.3-75.3 75.3v0z" />
<glyph unicode="&#xe905;" glyph-name="like" d="M197.2 366.4c-30.7 30.6-52.8 66.8-63.2 106.3-10.2 37.5-9.6 77.8 3.8 118.6 11.9 35.6 32.9 68.3 59.8 94.6 26.5 25.7 59.6 46.4 95.8 57.7 41.8 13.5 83.4 13.5 121.8 3.4 35-9.3 67.6-26.7 96.3-50.5 28.9 23.9 61.1 41.3 95.9 50.5 39 10 80.6 9.6 122.4-3.4 36.1-11.7 69.1-32 96.3-58.1 26.3-26.1 46.7-58.6 58.6-94.2h0.2c13.4-40.9 14-81.2 3.8-118.6-10.4-39.5-32.6-75.7-62.6-106.3l-1.9-1.3-292.3-292c-11.3-11.7-29.7-11.7-41.4 0.6l-293.3 292.7zM359.9 719.3c15.5 0 31-2 46.2-6 29.5-7.8 57.5-22.5 83-43.6l22.2-18.4 22.3 18.4c25.8 21.3 53.6 36 82.4 43.6 15.2 3.9 30.8 5.9 46.3 5.9 19 0 38.2-3 56.6-8.7 30.4-9.9 59.1-27.2 82.5-49.6 22.7-22.5 40-50.4 50.1-80.5l2-6c9.1-31.2 9.6-62.3 1.3-92.6-8.3-31.3-26.1-61.9-51.6-88.5l-1.7-1.2-2.1-2.1-288-287.7-289.6 289c-26.9 26.8-45.6 58.1-54.2 90.8-8.8 32.1-7.7 65.2 3.2 98.3 10 29.9 27.7 57.8 51 80.6 23.7 23 52 40.1 82.1 49.5 18.4 5.8 37.2 8.8 56 8.8zM359.9 754.2c-21.8 0-44.2-3.3-66.6-10.6-36.1-11.3-69.2-32-95.8-57.7-26.8-26.3-47.8-59-59.8-94.6-13.4-40.9-14-81.2-3.8-118.6 10.4-39.5 32.5-75.7 63.2-106.3l293.3-292.7c5.9-6.2 13.6-9.3 21.1-9.3 7.4 0 14.7 2.9 20.3 8.7l292.3 292 1.9 1.3c30.1 30.6 52.2 66.8 62.6 106.3 10.2 37.5 9.6 77.8-3.8 118.6h-0.2c-11.9 35.6-32.4 68.1-58.6 94.2-27.2 26.1-60.2 46.3-96.3 58.1-22.6 7.1-45.2 10.4-67.4 10.4-18.8 0-37.2-2.4-55-7-34.8-9.3-67-26.7-95.9-50.5-28.8 23.9-61.3 41.3-96.3 50.5-17.8 4.7-36.3 7.2-55.2 7.2v0z" />
<glyph unicode="&#xe906;" glyph-name="left" d="M314.2 454.5l350.1 350.1c7.5 7.5 7.5 19.8 0 27.4-7.5 7.5-19.8 7.5-27.4 0l-363.7-363.8c-7.5-7.5-7.5-19.8 0-27.4l363.8-363.7c7.5-7.5 19.8-7.5 27.4 0 7.5 7.5 7.5 19.8 0 27.4l-350.2 350z" />
<glyph unicode="&#xe907;" glyph-name="user" d="M513 458.9c-99.2 0-179.9 80.7-179.9 179.9s80.7 179.9 179.9 179.9c99.2 0 179.9-80.7 179.9-179.9s-80.7-179.9-179.9-179.9v0zM513 769.2c-71.9 0-130.4-58.5-130.4-130.4s58.5-130.5 130.4-130.5c71.9 0 130.5 58.5 130.5 130.5 0 71.9-58.6 130.4-130.5 130.4v0zM809.4 162.5c-13.7 0-24.7 11.1-24.7 24.7 0 149.8-121.9 271.6-271.6 271.6-149.8 0-271.6-121.9-271.6-271.6 0-13.7-11.1-24.7-24.7-24.7-13.7 0-24.7 11.1-24.7 24.7 0 177 144 321.1 321.1 321.1 177 0 321.1-144 321.1-321.1-0.2-13.6-11.3-24.7-24.9-24.7v0z" />
<glyph unicode="&#xe908;" glyph-name="notice" d="M523.9 793.7c-3.4 2-7.5 2.7-10.9 2.7-5.4 0-10.9-2-14.9-5.4 0 0-39.4-31.9-82.8-64.5-74.7-56.3-97.1-65.9-102.5-67.9h-157.5c-10.9 0-19.7-9.5-19.7-20.4v-358.5c0-11.5 8.8-20.4 19.7-20.4h174.5c4.8-1.4 25.8-12.2 92.3-67.2 39.4-33.3 74-64.5 74-64.5 4.8-4.1 10.2-6.1 16.3-6.1 3.4 0 6.8 0.7 10.9 2 8.8 4.1 14.3 13.6 14.3 23.1v624.7c-0.1 9.5-5.5 18.3-13.7 22.4zM732.3 735.9c-4.8 2.7-8.1 4.1-12.2 4.1-10.9 0-19.7-9.5-19.7-20.4 0-7.5 4.1-14.3 11.5-18.3 83.5-50.2 135.8-142.6 135.8-241.7s-51.6-191.5-135.8-241.7c-6.1-3.4-12.2-9.5-12.2-18.3 0-11.5 8.8-20.4 19.7-20.4 4.1 0 7.5 1.4 12.2 5.4 95.7 57 155.5 162.3 155.5 275.6 0 112.8-59 218.7-154.8 275.7zM757.4 459.6c0 65.9-35.3 127.6-91 160.9-2.7 1.4-8.1 3.4-11.5 3.4-10.9 0-19.7-9.5-19.7-20.4 0-7.5 3.4-14.3 9.5-17.6 44.1-26.5 72-74.7 72-127 0-53-28.5-101.8-74.7-127.6-6.1-4.1-9.5-10.2-9.5-17.7 0-11.5 8.8-20.4 19.7-20.4 4.8 0 10.2 3.4 11.5 3.4 57.8 33.4 93.7 95.8 93.7 163z" />
<glyph unicode="&#xe909;" glyph-name="cart" d="M915.7 712.9c-3.4 4.2-8.5 6.5-13.8 6.5h-606.9l-12.2 64c-1.7 8.4-9 14.5-17.6 14.5h-144.5c-9.8 0-17.8-8-17.8-17.8s8-17.8 17.8-17.8h129.7l11.9-62c0.1-0.7 0.1-1.5 0.2-2.2l3.5-17.6 83.7-437.1c1.7-8.4 9-14.5 17.6-14.5h434.6c9.8 0 17.8 8 17.8 17.8s-8 17.8-17.8 17.8h-419.9l-14.3 74.5h463.8c8.5 0 15.8 5.9 17.6 14.2l70.4 344.9c0.8 5.3-0.4 10.8-3.8 14.8v0zM816.9 374.9h-452l-63.1 308.9h578.2l-63.1-308.9zM407.4 126.9c0-18.5 9.9-35.6 25.9-45 16-9.2 35.8-9.2 51.9 0 16 9.2 25.9 26.4 25.9 45 0 28.6-23.3 51.9-51.9 51.9-28.6-0.1-51.8-23.2-51.8-51.9v0zM698.3 126.9c0-28.6 23.3-51.9 51.9-51.9s51.9 23.3 51.9 51.9-23.3 51.9-51.9 51.9c-28.8-0.1-51.9-23.2-51.9-51.9v0z" />
<glyph unicode="&#xe90a;" glyph-name="cross" d="M197.043 795.439l677.967-677.967-55.366-55.366-677.967 677.967 55.366 55.366zM875.075 740.003l-677.967-677.967-55.366 55.366 677.967 677.967 55.366-55.366z" />
<glyph unicode="&#xe90b;" glyph-name="about" d="M514.8 52.2c-219.3 0-397.7 178.4-397.7 397.7s178.4 397.7 397.7 397.7c219.3 0 397.7-178.4 397.7-397.7s-178.4-397.7-397.7-397.7v0zM514.8 783.1c-183.7 0-333.2-149.5-333.2-333.2s149.5-333.2 333.2-333.2c183.7 0 333.2 149.5 333.2 333.2s-149.5 333.2-333.2 333.2v0zM482.5 654.1h64.5v-236.4h-64.5v236.4zM482.5 353.1h64.5v-107.5h-64.5v107.5z" />
<glyph unicode="&#xe90c;" glyph-name="right" d="M328.2 104.4c-7.5-7.5-7.5-19.8 0-27.4 7.5-7.5 19.8-7.5 27.4 0l363.8 363.8c7.5 7.5 7.5 19.8 0 27.4l-363.8 363.9c-7.5 7.5-19.8 7.5-27.4 0-7.5-7.5-7.5-19.8 0-27.4l350.1-350.1-350.1-350.2z" />
<glyph unicode="&#xe90d;" glyph-name="trash" d="M841.4 696.3c-0.6 11.7-7.1 19.1-18.6 21.1-8.1 1.5-16.5 2.5-24.7 2.5-73 0.2-146 0.1-219.1 0.1-28.3 0-28.6 0-28.4 27.9 0.1 13.6-1.9 26-15 32.8-15.7 8.2-32.5 8.4-48 0.7-15.2-7.6-17.6-22.3-15.6-38 0.4-3.2-0.2-6.4 0.3-9.6 1.6-10.9-2.8-14.1-13.7-14.1-55.7 0.1-111.4-0.7-167.1-1.1-28.1-0.2-56.3 0.2-84.4-0.2-14.8-0.2-26.6-4.9-27.2-22.8-0.5-17.5 9.3-25.7 25.2-27.9 6.9-1 14.2-1.2 21.1-0.2 15.5 2.2 20.4-2.6 20.2-19.2-1-80.7-0.5-161.4-0.5-242.1 0-80.1 0-160.1 0-240.2 0-46.1 23.4-70.2 69.4-70.3 130.7-0.3 261.3-0.3 392 0 46 0.1 69.1 23.7 69.3 70.3 0.2 54.4 0.1 108.9 0.1 163.3 0 106.3 0.4 212.6-0.4 319-0.1 16.5 4.5 21.5 20.1 19.3 10.2-1.4 20.7-0.4 30.2 3.9 10.3 4.8 15.4 13.4 14.8 24.8v0zM671 150.9c-108.3-0.4-216.6-0.9-324.9-1.3-35.7-0.1-46.8 11.1-46.8 47.1 0 75 0 150 0 225 0 76.3 0.3 152.5-0.3 228.8-0.1 12.9 2.4 17.4 16.4 17.3 130.7-0.6 261.5-0.5 392.2 0 13.1 0 15.5-4.1 15.5-16.1-0.2-149.3 0.3-298.6 0.3-448 0.1-40.9-12-52.6-52.4-52.8v0zM462.5 405.1c0-52.9 0.2-105.9-0.1-158.8-0.1-22.9-17.9-35.7-35.5-26.1-11.5 6.3-12.9 17-12.8 28.8 0.2 59.4 0.1 118.8 0.1 178.2 0 44.1 0 88.2 0 132.4 0 23.9 8 35.3 24.6 35.1 16.3-0.2 23.8-11.4 23.8-35.9-0.1-51.3-0.1-102.5-0.1-153.7v0zM617.3 408.1c0-57 0.1-114 0-171 0-21.9-10.5-35.3-26.8-34.8-15.8 0.5-25.7 13.2-25.8 34-0.1 114.6-0.1 229.2 0 343.8 0 21.7 9.1 33 25.9 33.2 17.2 0.2 26.7-11.8 26.7-34.3 0-56.9 0-113.9 0-170.9v0z" />
<glyph unicode="&#xe90e;" glyph-name="train" d="M877.1 611.1c-0.3 0.1-0.6 0.3-0.9 0.4l-280.4 103.8c-26.9 11.3-55.3 17.1-84.5 17.1s-57.6-5.7-84.5-17.1l-280.3-103.8c-0.3-0.1-0.6-0.2-0.9-0.4-17.1-7.3-28.2-24-28.2-42.5s11.1-35.3 28.2-42.5c0.3-0.1 0.6-0.2 0.9-0.4l104.5-38.7v-207.9c0-20 9.8-38.7 26.2-50 28.3-19.4 94.5-64.9 233.2-64.9 138.4 0 205.7 45.4 234.5 64.8l0.1 0.1c16.7 11.3 26.7 30.1 26.7 50.3v207.6l104.5 38.7c0.3 0.1 0.6 0.2 0.9 0.4 17.1 7.3 28.2 24 28.2 42.5s-11.1 35.3-28.2 42.5v0zM730 279.4c0-6.3-3.1-12.2-8.3-15.7l-0.1-0.1c-25.6-17.3-85.5-57.7-211.2-57.7-125.8 0-184.5 40.3-209.6 57.6-5.1 3.5-8.1 9.3-8.1 15.6v192.5l134.2-49.7c26.9-11.3 55.3-17.1 84.5-17.1s57.6 5.7 84.5 17.1l134.1 49.7v-192.2zM861.1 564.6l-280.2-103.8c-0.3-0.1-0.6-0.2-0.9-0.4-21.8-9.3-44.9-14-68.6-14s-46.8 4.7-68.6 14c-0.3 0.1-0.6 0.2-0.9 0.4l-280.3 103.8c-1.6 0.8-2.4 2.1-2.4 4s0.8 3.2 2.4 4l280.2 103.8c0.3 0.1 0.6 0.2 0.9 0.4 21.8 9.3 44.9 14 68.6 14s46.8-4.7 68.6-14c0.3-0.1 0.6-0.3 0.9-0.4l280.2-103.8c1.6-0.8 2.4-2.1 2.4-4 0.1-1.9-0.7-3.2-2.3-4v0z" />
<glyph unicode="&#xe90f;" glyph-name="comment" d="M566.7 271.4l-298.8-186.8v253.7c-74.2 50.1-121.7 122-121.7 202.8 0 151.3 163.5 273.9 365.1 273.9s365.1-122.6 365.1-273.9c0.1-137.1-134.5-249.6-309.7-269.7v0z" />
<glyph unicode="&#xe910;" glyph-name="wallet" d="M757.4 766.5h-488.8c-43.1 0-78.1-35-78.1-78.1v-488.7c0-43.1 35-78.1 78.1-78.1h488.7c43.1 0 78.1 35 78.1 78.1v488.7c0.1 43.1-35 78.1-78 78.1v0zM794.7 377.8h-116.4c-62.1 0-99.2 24.8-99.2 66.2 0 36.5 29.7 66.2 66.2 66.2h149.4v-132.4zM757.4 162.3h-488.8c-20.6 0-37.4 16.8-37.4 37.4v488.7c0 20.6 16.8 37.4 37.4 37.4h488.7c20.6 0 37.4-16.8 37.4-37.4v-137.4h-149.4c-59 0-107-48-107-107 0-49.3 36.7-107 139.9-107h116.5v-137.4c0-20.5-16.7-37.3-37.3-37.3v0zM667.7 415.2c15.9 0 28.9 12.9 28.9 28.9 0 15.9-12.9 28.9-28.9 28.9-15.9 0-28.9-12.9-28.9-28.9s13-28.9 28.9-28.9v0z" />
<glyph unicode="&#xe911;" glyph-name="picture" d="M41.6 839.1v-766.6h943.4v766.6h-943.4zM926.1 131.3h-825.6v648.8h825.6v-648.8zM690.3 632.7c0-48.9 39.7-88.4 88.4-88.4 48.9 0 88.4 39.7 88.4 88.4 0 48.9-39.7 88.4-88.4 88.4-48.9 0-88.4-39.7-88.4-88.4v0zM867.1 190.3h-707.6l177 471.8 235.8-294.8 118 88.4 176.8-265.4z" />
<glyph unicode="&#xe912;" glyph-name="team" d="M853.2 258.9c0-67.4-55.9-123.3-123.3-123.3-34.7 0-65.5 13.5-88.6 36.6-42.4-23.1-90.6-36.6-142.6-36.6s-100.2 13.5-142.6 36.6c-23.1-23.1-53.9-36.6-88.6-36.6-67.4 0-123.3 55.9-123.3 123.3 0 48.2 27 88.6 67.4 109.8-3.9 19.3-5.8 38.5-5.8 59.7 0 123.3 77.1 229.3 185 271.7 5.8 63.6 57.8 113.7 121.4 113.7 67.4 0 123.3-55.9 123.3-123.3v-3.9c92.5-50.1 154.1-146.4 154.1-258.2 0-21.2-1.9-40.5-5.8-59.7 40.5-21.2 69.4-61.6 69.4-109.8v0zM205.8 258.9c0-34.7 27-61.7 61.7-61.7s61.7 27 61.7 61.7c0 34.7-27 61.7-61.7 61.7s-61.7-28.9-61.7-61.7v0zM514.1 750.2c-34.7 0-61.7-27-61.7-61.7s27-61.7 61.7-61.7 61.7 27 61.7 61.7c0 34.7-27 61.7-61.7 61.7v0zM618.1 625c-21.2-34.7-59.7-57.8-104-57.8-50.1 0-92.5 28.9-111.7 71.3-79-36.6-134.9-117.5-134.9-210 0-15.4 1.9-30.8 3.9-46.2 65.5-1.9 117.5-55.9 117.5-123.3 0-11.6-1.9-21.2-3.9-32.8 32.8-19.3 71.3-28.9 111.8-28.9s79 11.6 111.7 28.9c-1.9 9.6-3.9 21.2-3.9 32.8 0 65.5 52 119.5 117.5 123.3 3.9 15.4 3.9 30.8 3.9 46.2 3.9 82.8-40.4 156-107.9 196.5v0zM729.9 320.6c-34.7 0-61.7-27-61.7-61.7s27-61.7 61.7-61.7c34.7 0 61.7 27 61.7 61.7-0.1 32.8-29 61.7-61.7 61.7v0z" />
<glyph unicode="&#xe913;" glyph-name="wechat" d="M515.5 211.4c-46.8 0-92.4 8.5-135.7 25.2l-167.3-75.3c-2.3-1-4.6-1.5-7.1-1.5-3.9 0-7.9 1.4-11 4-5 4.2-7.3 11-5.7 17.3l41 167.3c-38.7 51.5-59 111.2-59 173.2 0 171.1 154.7 310.3 344.8 310.3s344.8-139.2 344.8-310.3c0-171-154.7-310.2-344.8-310.2v0zM515.5 797.5c-171.1 0-310.3-123.7-310.3-275.8 0-57 19.6-111.8 56.8-158.6 3.3-4.1 4.5-9.6 3.2-14.8l-34.6-141.1 141.7 63.9c4.3 1.9 9.3 2 13.6 0.2 41.2-16.9 84.8-25.5 129.6-25.5 171.1 0 310.3 123.7 310.3 275.8 0 152.2-139.2 275.9-310.3 275.9v0zM394.8 556.2c-9.5 0-17.3 7.7-17.3 17.3 0 9.5 7.7 17.2 17.3 17.2 9.5 0 17.2-7.7 17.2-17.2 0-9.6-7.7-17.3-17.2-17.3v0zM636.2 556.2c-9.5 0-17.3 7.7-17.3 17.3 0 9.5 7.7 17.2 17.3 17.2 9.5 0 17.2-7.7 17.2-17.2 0-9.6-7.8-17.3-17.2-17.3v0zM394.8 539c-19.1 0-34.5 15.4-34.5 34.5s15.4 34.5 34.5 34.5c19 0 34.5-15.4 34.5-34.5s-15.5-34.5-34.5-34.5v0zM636.2 539c-19.1 0-34.5 15.4-34.5 34.5s15.4 34.5 34.5 34.5c19 0 34.5-15.4 34.5-34.5s-15.5-34.5-34.5-34.5v0z" />
<glyph unicode="&#xe914;" glyph-name="mine" d="M513.4 833c-210.5 0-381.2-170.7-381.2-381.2s170.7-381.2 381.2-381.2 381.2 170.7 381.2 381.2-170.7 381.2-381.2 381.2zM635.4 617.8c11.8 6.8 26.4 6.8 38.3 0 11.8-6.8 19.1-19.5 19.1-33.1 0-13.7-7.3-26.3-19.1-33.1s-26.4-6.8-38.3 0c-11.8 6.8-19.1 19.5-19.1 33.1s7.3 26.2 19.1 33.1zM515.2 520.7c17.9 0 32.4-14.5 32.4-32.4s-14.5-32.4-32.4-32.4c-17.9 0-32.4 14.5-32.4 32.4s14.5 32.4 32.4 32.4zM431.1 703.3c38.4 0 69.5-31.1 69.5-69.5s-31.1-69.5-69.5-69.5c-38.4 0-69.5 31.1-69.5 69.5 0 38.3 31.1 69.5 69.5 69.5zM356.4 316.9c-46.4 0-84.1 37.7-84.1 84.1s37.7 84.1 84.1 84.1c46.4 0 84.1-37.7 84.1-84.1s-37.7-84.1-84.1-84.1zM504 200.3c-19.6 0-35.4 15.9-35.4 35.4 0 19.6 15.9 35.4 35.4 35.4 19.6 0 35.4-15.9 35.4-35.4 0-19.6-15.8-35.4-35.4-35.4zM639.8 297.9c-51.7 0-93.6 41.9-93.6 93.6s41.9 93.6 93.6 93.6c51.7 0 93.6-41.9 93.6-93.6s-41.9-93.6-93.6-93.6z" />
<glyph unicode="&#xe915;" glyph-name="integral" d="M438.3 538.8c87.6 0 178.7 19.3 233.4 56v-66.9h50.7v146.4c0 88-146.3 135.5-284 135.5s-284.1-47.5-284.1-135.5v-399.6c0-88 146.3-135.5 284-135.5v50.6c-144.6 0-233.4 49.5-233.4 84.9v120.1c54.7-36.6 145.7-56 233.4-56v50.7c-144.6 0-233.4 49.5-233.4 84.9v120.2c54.7-36.5 145.8-55.8 233.4-55.8v0zM438.3 759.3c144.6 0 233.4-49.5 233.4-84.9s-88.8-84.9-233.4-84.9c-144.6 0-233.4 49.5-233.4 84.9s88.9 84.9 233.4 84.9v0zM665.4 511.1c-125.8 0-191.5-48.4-191.5-96.2v-256.8c0-47.8 65.8-96.2 191.5-96.2 124.8 0 190.5 47.7 191.5 95.1h0.1v257.9c-0.1 47.8-65.8 96.2-191.6 96.2v0zM665.4 460.5c93 0 140.9-31.9 140.9-45.6 0-13.6-47.9-45.6-140.9-45.6s-140.9 31.9-140.9 45.6c-0.1 13.6 47.9 45.6 140.9 45.6v0zM665.4 112.6c-93 0-140.9 31.9-140.9 45.6v61.3c32.1-17.5 79.3-29.1 140.9-29.1s108.7 11.6 140.9 29.1v-61.3c0-13.7-47.9-45.6-140.9-45.6v0zM665.4 241c-93 0-140.9 31.9-140.9 45.6v61.3c32.1-17.5 79.3-29.1 140.9-29.1s108.7 11.6 140.9 29.1v-61.3c0-13.6-47.9-45.6-140.9-45.6v0z" />
<glyph unicode="&#xe916;" glyph-name="travel" d="M645.7 516.5h-46.8l-7.4-280.9h-249.2l-156 156-32-32 140.4-140.4v-77.2h46.9v46.9h374.4v-46.9h46.8v46.9h31.2v46.8h-140.9l-7.4 280.8zM504.7 765.3l-351-249.6h701.9l-350.9 249.6zM603.9 548.3h-350.9l250.6 178.2 250.6-178.2h-150.3z" />
<glyph unicode="&#xe917;" glyph-name="cell-circle" d="M845.3 641.9c34.4-58.9 51.6-123.3 51.6-193 0-69.8-17.2-134.1-51.6-193s-81.1-105.6-140-139.9c-59-34.4-123.3-51.6-193.2-51.6-69.8 0-134.2 17.2-193.2 51.6s-105.6 81-140 139.9c-34.4 58.9-51.6 123.3-51.6 193 0 69.8 17.2 134.1 51.6 193s81.1 105.6 140 139.9c59 34.4 123.3 51.6 193.2 51.6 69.8 0 134.2-17.2 193.2-51.6 58.9-34.3 105.6-81 140-139.9v0zM679.1 736.8c-51 29.7-106.6 44.6-167 44.6s-116-14.9-167-44.6c-51-29.7-91.4-70.1-121.1-121-29.8-50.9-44.7-106.6-44.7-166.9s14.9-115.9 44.7-166.9c29.8-50.9 70.1-91.3 121.1-121 51-29.8 106.6-44.6 167-44.6 60.3 0 116 14.9 167 44.6s91.3 70.1 121.1 121c29.8 50.9 44.7 106.6 44.7 166.9s-14.9 115.9-44.7 166.9c-29.7 50.9-70.1 91.3-121.1 121v0zM602.8 539.5c25.1-25 37.6-55.3 37.6-90.6 0-35.4-12.5-65.6-37.6-90.6s-55.3-37.6-90.7-37.6c-35.4 0-65.6 12.5-90.7 37.6-25.1 25-37.6 55.2-37.6 90.6s12.5 65.6 37.6 90.6c25.1 25 55.3 37.6 90.7 37.6s65.7-12.5 90.7-37.6v0z" />
<glyph unicode="&#xe918;" glyph-name="info" d="M787.6 674.5c17.5 0 31.7-14.2 31.7-31.7v-391.4c0-17.5-14.2-31.7-31.7-31.7h-552.5c-17.5 0-31.7 14.2-31.7 31.7v391.5c0 17.5 14.2 31.7 31.7 31.7h552.5zM787.6 711.9h-552.5c-38.1 0-69.1-30.9-69.1-69.1v-391.4c0-38.1 30.9-69.1 69.1-69.1h552.5c38.1 0 69.1 30.9 69.1 69.1v391.5c0 38.1-31 69-69.1 69v0zM798.4 676.4l-266.7-266.7c-6-6-13.9-9.3-22.4-9.3s-16.4 3.3-22.4 9.3l-266.6 266.7h-17.6v-35.4l257.8-257.8c13.5-13.5 31.2-20.2 48.8-20.2 17.7 0 35.4 6.7 48.8 20.2l261.8 261.8v31.4h-21.5z" />
<glyph unicode="&#xe919;" glyph-name="password" d="M758.1 576.2h-48.7v64.9c0 107.3-87.3 194.6-194.7 194.6s-194.7-87.3-194.7-194.6v-64.9h-48.7c-26.9 0-48.7-21.8-48.7-48.6v-356.7c0-26.9 21.8-48.6 48.7-48.6h486.7c26.9 0 48.7 21.8 48.7 48.6v356.7c0.1 26.8-21.7 48.6-48.6 48.6v0zM368.7 641.1c0 80.5 65.5 145.9 146 145.9s146-65.5 146-145.9v-64.9h-292v64.9zM758.1 170.8h-486.7v356.8h486.7v-356.8zM514.8 260c13.4 0 24.3 10.9 24.3 24.3v129.8c0 13.4-10.9 24.3-24.3 24.3s-24.3-10.9-24.3-24.3v-129.7c-0.1-13.5 10.8-24.4 24.3-24.4v0z" />
<glyph unicode="&#xe91a;" glyph-name="add" d="M700.5 433.3h-380.3c-9.7 0-17.1 7.4-17.1 17.1s7.4 17.1 17.1 17.1h380.3c9.7 0 17.1-7.4 17.1-17.1s-7.4-17.1-17.1-17.1v0zM510.3 243.1c-9.7 0-17.1 7.4-17.1 17.1v380.3c0 9.7 7.4 17.1 17.1 17.1s17.1-7.4 17.1-17.1v-380.3c0-9.7-7.4-17.1-17.1-17.1v0zM772.2 139.5h-523.8c-27.3 0-49.5 22.2-49.5 49.5v523.2c0 27.3 22.2 49.5 49.5 49.5h523.8c27.3 0 49.5-22.2 49.5-49.5v-523.8c-1.1-27.8-22.7-48.9-49.5-48.9v0zM248.4 727.6c-8 0-15.4-7.4-15.4-15.4v-523.2c0-8 7.4-15.4 15.4-15.4h523.8c8.5 0 15.4 6.8 15.4 15.4v523.2c0 8-7.4 15.4-15.4 15.4h-523.8z" />
<glyph unicode="&#xe91b;" glyph-name="index" d="M423.8 129v257.3h171.5v-257.3h214.4v343.1h128.7l-428.9 385.9-428.9-386h128.7v-343h214.5z" />
<glyph unicode="&#xe91c;" glyph-name="forward" d="M877.6 468.1l-280.3 275.4c-36.8 37.4-37.6-0.8-37.6-0.8v-183.5c-315.3-40.2-397.3-225.4-418.6-319.3-7.5-33.2 13.2-26.5 24.6-14.1 142.3 153.5 393.5 125.5 393.5 125.5v-190.2c-2.1-50.2 41.4-5.6 41.4-5.6l280.3 274.5c18.4 17.2-3.2 38.1-3.3 38.1v0z" />
<glyph unicode="&#xe91d;" glyph-name="service" d="M859.9 540c-18.2 176.2-167.1 313.5-348 313.5-2.9 0-5.9 0-8.7-0.1-1 0-1.9-0.1-2.9-0.1-2-0.1-3.9-0.1-5.9-0.2-1.2-0.1-2.3-0.2-3.4-0.2-1.7-0.1-3.5-0.2-5.2-0.4-1.3-0.1-2.4-0.2-3.7-0.3-1.6-0.2-3.3-0.3-5-0.5-1.3-0.1-2.5-0.3-3.8-0.4-1.6-0.2-3.2-0.4-4.8-0.5-1.3-0.2-2.5-0.4-3.8-0.5-1.5-0.2-3.2-0.4-4.7-0.6-1.3-0.2-2.5-0.4-3.8-0.6l-4.6-0.8c-1.3-0.2-2.5-0.4-3.8-0.6-1.5-0.3-3.1-0.5-4.6-0.9-1.3-0.3-2.5-0.5-3.8-0.7-1.5-0.4-3.1-0.6-4.5-1-1.3-0.3-2.4-0.5-3.7-0.8-1.5-0.4-3.1-0.7-4.5-1.1-1.2-0.3-2.4-0.6-3.6-0.9-1.5-0.4-3.1-0.8-4.6-1.3-1.2-0.4-2.3-0.6-3.5-1-1.5-0.4-3.1-0.9-4.7-1.4-1.1-0.4-2.3-0.6-3.3-1-1.6-0.5-3.2-1.1-4.9-1.5-1-0.4-2.1-0.6-3.1-1-1.9-0.6-3.7-1.3-5.5-2-0.8-0.3-1.5-0.5-2.3-0.8-2.6-1-5.1-1.9-7.8-3l-1.4-0.5c-2.1-0.8-4.2-1.7-6.3-2.6-0.9-0.4-1.8-0.8-2.7-1.2l-4.9-2.2c-1-0.5-2.1-0.9-3.1-1.4-1.4-0.7-3-1.4-4.4-2.1-1.1-0.5-2.2-1-3.2-1.5-1.4-0.7-2.8-1.4-4.2-2.1l-3.2-1.6-4.1-2.2c-1.1-0.5-2.2-1.2-3.3-1.8-1.4-0.7-2.6-1.4-4-2.3l-3.2-1.9c-1.3-0.7-2.6-1.5-3.9-2.3-1.1-0.6-2.1-1.3-3.2-1.9-1.3-0.8-2.5-1.6-3.8-2.3-1.1-0.6-2.1-1.4-3.1-2-1.3-0.8-2.5-1.6-3.8-2.5-1-0.6-2-1.4-3.1-2.1-1.3-0.8-2.5-1.7-3.8-2.6-1-0.7-2-1.4-3-2.1-1.3-0.9-2.5-1.8-3.7-2.7-1-0.7-1.9-1.4-2.8-2.1-1.3-1-2.5-2-3.8-2.9-0.9-0.7-1.8-1.4-2.6-2.1-1.4-1.1-2.7-2.2-4-3.3-0.8-0.6-1.6-1.3-2.3-1.9-1.6-1.4-3.2-2.6-4.7-4-0.5-0.4-1-0.8-1.5-1.3-2.1-1.8-4.1-3.6-6-5.4-0.5-0.5-1-1-1.5-1.4-1.4-1.4-3-2.7-4.4-4.1-0.7-0.7-1.4-1.4-2.2-2.1-1.3-1.2-2.4-2.3-3.6-3.6-0.8-0.8-1.5-1.6-2.3-2.4-1.1-1.2-2.3-2.3-3.3-3.4-0.8-0.8-1.6-1.7-2.4-2.5-1.1-1.1-2.1-2.3-3.2-3.3l-2.4-2.7c-1-1.1-2-2.3-3-3.4-0.8-0.9-1.6-1.8-2.3-2.8-1-1.2-2-2.3-2.9-3.4-0.8-0.9-1.5-1.9-2.3-2.9-0.9-1.2-1.9-2.3-2.8-3.5-0.7-1-1.5-1.9-2.3-2.9-0.9-1.2-1.8-2.3-2.7-3.6l-2.2-3c-0.9-1.2-1.8-2.4-2.7-3.6l-2.2-3c-0.9-1.3-1.7-2.5-2.6-3.8-0.7-1-1.4-2-2-3-0.9-1.3-1.7-2.6-2.6-3.9-0.6-1-1.3-2-1.9-2.9-0.9-1.4-1.7-2.8-2.6-4.1-0.5-0.9-1.2-1.9-1.7-2.8l-2.7-4.6c-0.4-0.8-1-1.6-1.4-2.5-1.2-2-2.3-4.1-3.4-6.1l-0.5-1.1c-1.3-2.4-2.6-4.8-3.8-7.2-0.4-0.7-0.7-1.5-1.1-2.3-0.8-1.7-1.7-3.4-2.5-5.1-0.5-1-0.9-1.9-1.4-2.9l-2.2-4.6c-0.4-1.1-0.9-2.1-1.4-3.2-0.6-1.4-1.3-2.9-1.9-4.4-0.4-1.1-0.9-2.3-1.4-3.3-0.6-1.4-1.2-2.9-1.8-4.3-0.5-1.2-0.9-2.3-1.4-3.4l-1.6-4.3c-0.5-1.2-0.8-2.3-1.3-3.5-0.5-1.4-1-2.9-1.5-4.3-0.5-1.2-0.8-2.3-1.2-3.6-0.5-1.4-1-2.9-1.4-4.3-0.4-1.2-0.7-2.4-1.1-3.6-0.4-1.4-0.9-3-1.4-4.4-0.4-1.2-0.7-2.4-1-3.6-0.5-1.5-0.8-3-1.2-4.5-0.4-1.2-0.6-2.4-0.9-3.6l-1.1-4.6c-0.3-1.2-0.5-2.3-0.8-3.6-0.4-1.6-0.7-3.2-1-4.8-0.3-1.2-0.5-2.3-0.7-3.5-0.4-1.7-0.6-3.3-1-5.1-0.2-1.1-0.4-2.2-0.6-3.3-0.4-1.9-0.6-3.8-0.9-5.7-0.2-0.9-0.3-1.8-0.4-2.7-0.5-2.8-0.8-5.6-1.2-8.5 0-0.2 0-0.4-0.1-0.5-0.4-2.5-0.6-5.1-0.9-7.7-1.3-5.9-1.9-11.9-1.9-18.1v-85.7c0-49.1 39.7-88.7 88.7-88.7 48.9 0 88.7 39.7 88.7 88.7v85.7c0 49.1-39.7 88.7-88.7 88.7-6.7 0-13.1-0.7-19.3-2.1 0.5 1.4 1.1 2.9 1.6 4.2 0.1 0.3 0.2 0.5 0.4 0.8 0.8 2.1 1.6 4.1 2.5 6.1 0.3 0.5 0.5 1.2 0.7 1.7 0.6 1.4 1.3 3 1.9 4.4 0.3 0.6 0.6 1.4 0.9 2 0.7 1.4 1.4 3 2.1 4.4 0.3 0.5 0.5 1.1 0.7 1.6 1 2 1.9 4 2.9 5.9l0.5 1.1c0.8 1.6 1.7 3.2 2.5 4.8 0.4 0.6 0.7 1.3 1 1.9 0.7 1.4 1.5 2.7 2.3 4.1 0.4 0.6 0.7 1.2 1 1.8 1 1.7 2 3.3 3 5 0.1 0.2 0.3 0.4 0.4 0.6 1.2 1.9 2.3 3.7 3.4 5.6 0.4 0.5 0.7 1.1 1 1.6 0.9 1.4 1.7 2.6 2.6 4 0.4 0.6 0.8 1.2 1.2 1.8 0.9 1.4 1.8 2.7 2.8 4 0.4 0.5 0.6 0.9 1 1.4 1.3 1.8 2.5 3.5 3.9 5.2 0.3 0.4 0.5 0.6 0.7 1 1.1 1.4 2.2 2.8 3.2 4.2 0.5 0.5 0.9 1.1 1.3 1.6 1 1.2 1.9 2.4 2.9 3.6 0.5 0.5 0.9 1.1 1.3 1.6 1.3 1.5 2.5 3 3.8 4.5 0.2 0.2 0.3 0.4 0.5 0.5l4.3 4.9c0.4 0.5 0.9 0.9 1.3 1.4 1.1 1.2 2.2 2.3 3.3 3.4 0.4 0.5 1 1.1 1.5 1.5 1.2 1.2 2.3 2.3 3.4 3.5l1.2 1.2c1.5 1.5 3.1 3.1 4.7 4.5 0.3 0.3 0.6 0.6 1 0.9 1.3 1.2 2.5 2.4 3.9 3.6 0.5 0.5 1.1 1 1.5 1.4 1.2 1 2.3 2.1 3.5 3.1 0.5 0.5 1 0.9 1.5 1.4 1.5 1.3 3 2.6 4.5 3.9 0.2 0.1 0.3 0.3 0.5 0.4 1.7 1.4 3.3 2.7 5.1 4.1 0.5 0.4 1 0.8 1.5 1.2 1.3 1 2.5 1.9 3.8 2.9 0.5 0.5 1.2 0.9 1.7 1.3 1.4 1 2.6 2 4 2.9 0.5 0.4 0.9 0.6 1.4 1 1.8 1.3 3.5 2.5 5.3 3.7 0.4 0.3 0.7 0.5 1.2 0.7 1.4 1 2.9 1.9 4.3 2.9 0.6 0.4 1.2 0.8 1.8 1.2 1.4 0.8 2.6 1.6 4 2.4 0.5 0.4 1.2 0.7 1.7 1.1 1.7 1.1 3.5 2.1 5.2 3.1 0.2 0.1 0.3 0.2 0.4 0.3 1.9 1.1 3.8 2.2 5.7 3.2 0.5 0.3 1.2 0.6 1.7 0.9 1.4 0.7 2.8 1.4 4.1 2.2 0.6 0.4 1.3 0.6 2 1 1.4 0.7 3 1.5 4.5 2.3 0.4 0.3 1 0.5 1.4 0.7 2 1 4 1.9 6 2.8 0.5 0.2 0.9 0.4 1.3 0.5 1.6 0.7 3.2 1.4 4.8 2.1 0.6 0.3 1.4 0.5 2 0.8 1.4 0.6 2.9 1.2 4.3 1.8 0.6 0.3 1.3 0.5 1.9 0.7 2 0.7 3.9 1.5 5.9 2.3 0.1 0 0.2 0.1 0.3 0.1 2.1 0.7 4.1 1.5 6.2 2.2 0.6 0.2 1.3 0.4 1.9 0.6 1.5 0.5 3.1 1 4.5 1.4 0.7 0.2 1.4 0.4 2.1 0.6 1.6 0.5 3.2 1 4.9 1.4 0.5 0.2 1.1 0.3 1.5 0.4 2.2 0.6 4.3 1.2 6.5 1.7 0.4 0.1 1 0.3 1.4 0.4 1.7 0.5 3.4 0.8 5.1 1.3l2.2 0.5c1.5 0.4 3.2 0.7 4.7 1 0.7 0.2 1.4 0.3 2.1 0.5 2.2 0.4 4.3 0.8 6.5 1.3h0.2c2.3 0.4 4.5 0.7 6.7 1.1 0.7 0.1 1.4 0.2 2.1 0.3 1.6 0.3 3.2 0.4 4.9 0.7 0.7 0.1 1.5 0.2 2.3 0.3 1.7 0.2 3.5 0.4 5.2 0.6 0.5 0.1 1.1 0.1 1.6 0.2 2.3 0.3 4.6 0.5 6.9 0.6 0.5 0 1.1 0.1 1.6 0.1 1.8 0.1 3.6 0.3 5.3 0.4 0.7 0 1.5 0.1 2.3 0.1 1.6 0.1 3.3 0.2 5 0.2 0.7 0 1.4 0.1 2.2 0.1 2.3 0.1 4.7 0.1 7 0.1 128.6 0 238.1-80.9 280.6-194.6-6.2 1.4-12.7 2.2-19.3 2.2-48.9 0-88.7-39.7-88.7-88.7v-85.7c0-49.1 39.7-88.7 88.7-88.7 8 0 15.8 1.1 23.1 3.1-33.1-99.6-117.2-176.2-221.5-198.5-12.3 18.9-33.6 31.6-57.9 31.6-38.1 0-69-30.9-69-69s30.9-69 69-69c33.9 0 62.2 24.5 67.9 56.9 153 32.4 269.1 164.7 276.7 325.6 0.3 2.8 0.5 5.6 0.5 8.4v85.7c-0.2 6.2-0.8 12.3-2 18.2v0zM250.6 559.9c21.1 0 38.2-17.1 38.2-38.2v-85.7c0-21-17.1-38.2-38.2-38.2s-38.2 17.1-38.2 38.2v67.5c0 9.5 0.5 18.9 1.4 28.1 4.3 16.3 19.2 28.3 36.8 28.3v0zM773.1 397.8c-21.1 0-38.2 17-38.2 38.2v85.7c0 21 17.1 38.2 38.2 38.2 17.7 0 32.5-11.9 36.9-28.1 0.9-9.3 1.4-18.7 1.4-28.2v-59.2c0-4.3-0.1-8.8-0.3-13.1-2.5-18.8-18.6-33.5-38-33.5v0z" />
<glyph unicode="&#xe91e;" glyph-name="consulting" d="M771.3 638v-367.7c0-14-9.8-27-23.8-29.4-17.7-2.8-33.1 10.7-33.1 28v454.4c0 31.2-25.6 56.9-56.9 56.9h-396.9c-31.2 0-56.9-25.6-56.9-56.9v-482.3c0-46.6 38.2-85.3 85.3-85.3h454.4c47.1 0 85.3 38.2 85.3 85.3v340.6c-0.5 31.2-26.1 56.4-57.4 56.4v0zM601.2 311.8h-283.8c-15.8 0-28.4 12.6-28.4 28.4s12.6 28.4 28.4 28.4h283.8c15.8 0 28.4-12.6 28.4-28.4 0.1-15.9-13-28.4-28.4-28.4v0zM601.2 453.9h-283.8c-15.8 0-28.4 12.6-28.4 28.4s12.6 28.4 28.4 28.4h283.8c15.8 0 28.4-12.6 28.4-28.4 0.1-15.8-13-28.4-28.4-28.4v0zM601.2 595.6h-283.8c-15.8 0-28.4 12.6-28.4 28.4s12.6 28.4 28.4 28.4h283.8c15.8 0 28.4-12.6 28.4-28.4s-13-28.4-28.4-28.4v0z" />
<glyph unicode="&#xe91f;" glyph-name="invite" d="M829.4 292.2h-74.5v74.5c0 10.3-8.3 18.6-18.6 18.6s-18.6-8.3-18.6-18.6v-74.5h-74.5c-10.3 0-18.6-8.3-18.6-18.6s8.3-18.6 18.6-18.6h74.5v-74.5c0-6.7 3.6-12.8 9.3-16.1 5.8-3.3 12.9-3.3 18.6 0 5.8 3.3 9.3 9.5 9.3 16.1v74.5h74.5c10.3 0 18.6 8.3 18.6 18.6 0 10.2-8.3 18.6-18.6 18.6v0zM708.1 395.7c4.5 9.2 0.7 20.4-8.5 24.9-25.8 12.6-54.7 22.3-85.6 28.8 61.8 35.3 103.6 101.7 103.6 177.9 0 113-91.9 204.9-204.8 204.9s-204.8-91.9-204.8-204.8c0-76.1 41.8-142.5 103.6-177.9-144.9-30.7-234-129.5-234-269.1 0-10.3 8.3-18.6 18.6-18.6s18.6 8.3 18.6 18.6c0 178.5 153.9 242.1 297.9 242.1 64.1 0 123.1-12.2 170.4-35.3 4.4-2.2 9.6-2.5 14.2-0.9 4.8 1.6 8.7 5 10.8 9.4v0zM345.2 627.4c0 92.4 75.2 167.6 167.6 167.6s167.6-75.2 167.6-167.6c0-92.4-75.2-167.6-167.6-167.6s-167.6 75.1-167.6 167.6v0z" />
<glyph unicode="&#xe920;" glyph-name="phone" d="M305.7 66h418c61.8 0 112.1 50.3 112.1 112.1v539.8c0 61.8-50.3 112.1-112.1 112.1h-418c-61.8 0-112.1-50.3-112.1-112.1v-539.8c0.1-61.8 50.3-112.1 112.1-112.1zM224.5 717.9c0 44.8 36.5 81.3 81.3 81.3h418c44.8 0 81.3-36.5 81.3-81.3v-539.8c0-44.8-36.5-81.3-81.3-81.3h-418c-44.8 0-81.3 36.5-81.3 81.3v539.8zM514.7 253c-30.1 0-54.6-24.5-54.6-54.6s24.5-54.6 54.6-54.6c30.1 0 54.6 24.5 54.6 54.6s-24.5 54.6-54.6 54.6zM514.7 156.7c-23 0-41.7 18.7-41.7 41.7s18.7 41.7 41.7 41.7c23 0 41.7-18.7 41.7-41.7s-18.7-41.7-41.7-41.7zM285.3 291.7h458.8c3.9 0 7 2.7 7 5.9v445.4c0 3.3-3.1 5.9-7 5.9h-458.8c-3.9 0-7-2.7-7-5.9v-445.3c0.1-3.3 3.2-6 7-6zM326.8 720.1h375.7c9.5 0 17.1-6.5 17.1-14.6v-370.4c0-8-7.7-14.6-17.1-14.6h-375.7c-9.5 0-17.1 6.5-17.1 14.6v370.4c0 8.1 7.7 14.6 17.1 14.6zM531.1 221.3h-32.8c-3.6 0-6.5-2.9-6.5-6.5v-32.8c0-3.6 2.9-6.5 6.5-6.5h32.8c3.6 0 6.5 2.9 6.5 6.5v32.8c0 3.6-2.9 6.5-6.5 6.5zM514.7 188.4c-5.5 0-9.9 4.5-9.9 10s4.4 10 9.9 10 9.9-4.5 9.9-10c0.1-5.5-4.4-10-9.9-10z" />
<glyph unicode="&#xe921;" glyph-name="founder" d="M595.4 397.4c80.8 37.1 137.3 119.2 137.3 214.7 0 130.1-104.6 235.9-233.2 235.9-128.5 0-233.2-105.8-233.2-236 0-96.8 58-180.2 140.7-216.5-13.3-3.4-26.8-7.4-40.2-12.4-136.4-50.3-224.8-184.6-224.8-331.6v-21.5l63.8 28.8c-1.2 9.4 1.3 41.8 1.3 41.8 15.9 140.4 138.6 249.1 292.5 249.1s276.9-148.2 286.7-246.9c0 0 4.2-32.9 4.4-42.2l66.5-30.6v15.7c0 161.6-130.6 308.5-261.8 351.7zM499.5 450.7c-87 0-157.8 72.9-157.8 162.5s70.8 162.5 157.8 162.5c87 0 157.8-72.9 157.8-162.5s-70.8-162.5-157.8-162.5zM554.8 295.2c-5.2 4.7-11.5 9.6-18.8 15.1h-72c-7.3-5.4-13-10.4-17.2-15.1-4.2-3.9-7.6-8.1-10.2-12.8s-2.4-8.9 0.8-12.8c6.4-9.4 12.6-18.8 18.8-28.4 5.2-8.1 11-14.5 17.2-19.1-2.1-7-5.2-16.8-9.4-29.5-4.3-13-8.2-26.2-11.8-39.4-3.4-12.7-6.6-25.4-9.4-38.2-2.6-12-3.9-21-3.9-27.2 0-3.9 2.4-8.5 7.1-13.9s10.2-11 16.5-16.8c6.3-5.8 12.8-10.6 19.6-14.5 6.8-3.8 12.8-5.7 18-5.7s11.5 2 18.8 5.8c7.4 3.9 14.4 8.4 21.1 13.3 6.8 5 12.5 10.4 17.2 16.2s7.1 10.6 7.1 14.4c0 4.6-1.6 12.6-4.7 23.7-3.5 12.5-6.9 25.1-10.2 37.6-3.6 13.6-7.5 27.1-11.8 40.6-4.2 13.1-7.8 23.6-11 31.3 6.3 3.9 12.3 9.5 18 16.8 5.7 7.4 12.8 17.2 21.1 29.5 3.1 4.7 3.4 9.5 0.8 14.5-2.6 5.1-6.5 10-11.7 14.6z" />
<glyph unicode="&#xe922;" glyph-name="margin" d="M641.1 468.2c-24.9 0-48.8-4.3-71-12.2v296.1c0 17.1-9.2 49.3-70.6 73.1-38.7 14.9-89.2 23.2-142.4 23.2-102.7 0-213-32.5-213-96.2v-473.3c0-20.9 12.3-50.4 70.8-72.4 38.3-14.4 88.8-22.3 142.2-22.3 27.9 0 55.5 2.2 80.8 6.4 27.3-86.9 108-150 203.1-150 117.4 0 213 96.2 213 214.6 0.1 117.4-95.4 213-212.9 213zM443.5 334.4c-26.2-5.4-55.8-8.3-86.3-8.3-107.2 0-165.6 33.3-165.6 47.3v32.7c46.4-24.5 112.8-32.7 165.6-32.7 42.6 0 83.3 5.1 117.5 14.4-12.8-16-23.4-34-31.2-53.4zM522.8 562.8c0-13.9-58.1-47.3-165.6-47.3-107.2 0-165.6 33.3-165.6 47.3v32.7c46.4-24.4 112.7-32.7 165.6-32.7 53.3 0 103.8 7.9 142.2 22.3 8.8 3.3 16.6 6.8 23.5 10.4v-32.7zM522.8 657.5c0-13.9-58.1-47.3-165.6-47.3-107.2 0-165.6 33.3-165.6 47.3v32.7c46.4-24.5 112.8-32.7 165.6-32.7s119.2 8.3 165.6 32.7v-32.7zM357.2 468.2c52.8 0 119.2 8.3 165.6 32.7v-32.7c0-3.4-7.4-15.8-40.1-28-33.2-12.4-77.8-19.3-125.6-19.3-107.2 0-165.6 33.3-165.6 47.3v32.7c46.5-24.5 112.9-32.7 165.7-32.7zM357.2 801c104.3 0 165.6-33.9 165.6-48.9 0-13.9-58.1-47.3-165.6-47.3-107.2 0-165.6 33.3-165.6 47.3-0.1 14.6 59.8 48.9 165.6 48.9zM357.2 231.5c-107.2 0-165.6 33.3-165.6 47.3v32.7c46.4-24.5 112.8-32.7 165.6-32.7 25.1 0 49.8 1.8 73 5.2-1.3-9.4-2-19.1-2-28.9 0-6.1 0.3-12.1 0.8-18.1-22.5-3.6-46.9-5.5-71.8-5.5zM641.1 88c-80.2 0-147.3 57.8-162.4 134.4-0.1 0.4-0.1 0.7-0.2 1.1 0 0.1 0 0.1 0 0.2-1.9 10.2-3 20.8-3 31.6 0 91.3 74.3 165.6 165.6 165.6s165.6-74.3 165.6-165.6c0.1-92.3-74.2-167.3-165.6-167.3z" />
</font>
</defs>
</svg>
